<svg width="256" height="256" viewBox="0 0 256 256" fill="none" xmlns="http://www.w3.org/2000/svg">
  <defs>
    <linearGradient id="miseiqGradient" x1="40" y1="220" x2="216" y2="36" gradientUnits="userSpaceOnUse">
      <stop offset="0" stop-color="#1E63A5" />
      <stop offset="1" stop-color="#19D2D8" />
    </linearGradient>
  </defs>
  <path
    d="M128 24C74.98 24 32 66.98 32 120C32 173.02 74.98 216 128 216C151.621 216 173.247 207.463 189.965 193.305L203.023 220.836C206.443 228.047 214.946 231.113 222.15 227.691C229.354 224.269 232.417 215.758 228.996 208.547L213.751 176.395C220.311 159.578 224 141.279 224 120C224 66.98 181.02 24 128 24ZM128 53C165.003 53 195 82.997 195 120C195 157.003 165.003 187 128 187C90.9969 187 61 157.003 61 120C61 82.997 90.9969 53 128 53Z"
    fill="url(#miseiqGradient)"
  />
  <path
    d="M112.719 80.5H143.281V94.0625H138.094V145.938H143.281V159.5H112.719V145.938H117.906V94.0625H112.719V80.5Z"
    fill="url(#miseiqGradient)"
  />
</svg>
